<svg xmlns="http://www.w3.org/2000/svg" width="119" height="53" viewBox="0 0 119 53" fill="none"><g clip-path="url(#clip0_1_79)"><path d="M58.22 14.3201H55.25C54.56 14.3201 54 14.8801 54 15.5701V43.2101C54 43.9001 54.56 44.4601 55.25 44.4601H65.42C66.11 44.4601 66.67 43.9001 66.67 43.2101V41.2001C66.67 40.5101 66.11 39.9501 65.42 39.9501H59.46V15.5601C59.46 14.8701 58.9 14.3101 58.21 14.3101L58.22 14.3201Z" fill="white"></path><path d="M72.67 22.6101H70.06C69.3696 22.6101 68.81 23.1698 68.81 23.8601V43.1901C68.81 43.8805 69.3696 44.4401 70.06 44.4401H72.67C73.3604 44.4401 73.92 43.8805 73.92 43.1901V23.8601C73.92 23.1698 73.3604 22.6101 72.67 22.6101Z" fill="white"></path><path d="M74.02 14.27C74.22 14.67 74.33 15.15 74.33 15.73C74.33 17.52 73.33 18.44 71.19 18.44C70.17 18.44 69.4 18.22 68.88 17.79C68.76 17.69 68.66 17.58 68.56 17.46C68.69 17.72 68.86 17.95 69.09 18.13C69.61 18.56 70.38 18.78 71.4 18.78C73.54 18.78 74.54 17.86 74.54 16.07C74.54 15.32 74.36 14.73 74.03 14.27H74.02Z" fill="#C43151"></path><path d="M74.02 14.2699C73.92 14.0799 73.82 13.8999 73.68 13.7399C73.17 13.1799 72.35 12.8799 71.19 12.8799C69.09 12.8799 68.05 13.8399 68.05 15.7199C68.05 16.4399 68.23 17.0099 68.57 17.4399C68.66 17.5599 68.77 17.6799 68.89 17.7699C69.41 18.1999 70.18 18.4199 71.2 18.4199C73.34 18.4199 74.34 17.4999 74.34 15.7099C74.34 15.1299 74.23 14.6499 74.03 14.2499L74.02 14.2699Z" fill="#F04463"></path><path d="M84.18 31.4801C82.69 31.0901 81.34 30.7801 81.34 28.7301C81.34 27.1601 81.78 26.0701 82.91 26.0701C83.7 26.0701 84.63 26.2801 85.81 26.6701C86.56 26.9201 87.36 26.4001 87.44 25.6101L87.58 24.2701C87.64 23.6901 87.29 23.1501 86.74 22.9601C85.19 22.4201 83.45 22.1001 82.04 22.1001C78.42 22.1001 76.1 24.4601 76.1 29.0001C76.1 33.5401 77.89 34.7201 79.94 35.4201C81.29 35.9901 83.17 36.0801 83.17 38.3501C83.17 40.0501 82.73 41.0101 81.38 41.0101C80.24 41.0101 79.14 40.7601 77.87 40.2801C77.1 39.9901 76.28 40.5301 76.2 41.3401L76.08 42.6701C76.03 43.2401 76.37 43.7601 76.9 43.9601C78.55 44.5801 80.36 44.9901 82.02 44.9901C86.17 44.9901 88.4 42.6801 88.4 38.0501C88.4 33.0701 86.09 32.0201 84.16 31.5001L84.18 31.4801Z" fill="white"></path><path d="M97.81 40.78C96.33 40.78 95.85 39.73 95.85 35.98V26.85H97.9C98.29 26.85 98.6 26.54 98.6 26.15V23.31C98.6 22.92 98.29 22.61 97.9 22.61H95.85L95.89 17.72C95.89 17.33 95.58 17.02 95.19 17.02H92.99C92.65 17.02 92.36 17.28 92.3 17.62C91.65 21.59 90.65 22.73 89.6 23.1C89.31 23.2 89.11 23.46 89.11 23.76V26.15C89.11 26.54 89.42 26.85 89.81 26.85H90.73V35.98C90.73 42.66 92.04 44.98 95.84 44.98C96.92 44.98 97.78 44.84 98.55 44.63C98.88 44.54 99.09 44.24 99.07 43.9L98.81 40.53C98.46 40.66 98.15 40.79 97.81 40.79V40.78Z" fill="white"></path><path d="M117.53 40.78C116.05 40.78 115.57 39.73 115.57 35.98V26.85H117.62C118.01 26.85 118.32 26.54 118.32 26.15V23.31C118.32 22.92 118.01 22.61 117.62 22.61H115.57L115.61 17.72C115.61 17.33 115.3 17.02 114.91 17.02H112.71C112.37 17.02 112.08 17.28 112.02 17.62C111.37 21.59 110.37 22.73 109.32 23.1C109.03 23.2 108.83 23.46 108.83 23.76V26.15C108.83 26.54 109.14 26.85 109.53 26.85H110.45V35.98C110.45 42.66 111.76 44.98 115.56 44.98C116.64 44.98 117.5 44.84 118.27 44.63C118.6 44.54 118.81 44.24 118.79 43.9L118.53 40.53C118.18 40.66 117.87 40.79 117.53 40.79V40.78Z" fill="white"></path><path d="M106.09 14.3201H102.41C101.918 14.3201 101.52 14.7185 101.52 15.2101V43.5601C101.52 44.0516 101.918 44.4501 102.41 44.4501H106.09C106.582 44.4501 106.98 44.0516 106.98 43.5601V15.2101C106.98 14.7185 106.582 14.3201 106.09 14.3201Z" fill="white"></path><path d="M22.52 4.74006L21.74 8.80006C21.74 8.80006 21.96 4.72006 26.96 4.74006H22.51H22.52Z" fill="white"></path><path d="M37.97 42.6598C37.66 42.8598 37.32 43.0098 36.96 43.1098C36.22 43.3198 35.44 43.2998 34.68 43.2998C32.81 43.2998 30.94 43.3998 29.07 43.3998C27.29 43.3998 25.51 43.4698 23.73 43.4298C22.77 43.3998 21.9 43.3598 20.91 43.2498C19.04 43.0298 17.24 42.2998 15.66 41.2498C14.77 40.6598 13.98 39.9598 13.3 39.1398C12.61 38.3098 12.1 37.4198 11.7 36.5098C11.61 36.3198 11.53 36.1198 11.46 35.9298C11.04 34.8298 10.77 33.6698 10.64 32.4898C10.52 31.4298 10.47 30.3298 10.61 29.2798C10.63 29.1398 10.65 28.9898 10.67 28.8498C10.71 28.5698 10.75 28.2898 10.79 28.0098C10.9 27.2898 11.02 26.5698 11.13 25.8498C11.13 25.8498 13.98 10.8998 15.15 4.78978V4.75978L15.41 3.44978L15.55 2.71978L15.59 2.51978C15.58 2.58978 15.56 2.66978 15.55 2.73978C15.53 2.83978 15.51 2.93978 15.49 3.03978C15.45 3.22978 15.42 3.40978 15.39 3.56978C15.35 3.75978 15.26 4.16978 15.12 4.74978V4.77978L10.14 26.8398C10.03 27.5598 9.90999 28.2798 9.79999 28.9998C9.75999 29.2798 9.71999 29.5598 9.67999 29.8398C9.65999 29.9798 9.63999 30.1298 9.61999 30.2698C9.48999 31.3198 9.52999 32.4198 9.64999 33.4798C9.77999 34.6498 10.05 35.8098 10.47 36.9198C10.55 37.1198 10.63 37.3098 10.71 37.4998C11.11 38.4098 11.63 39.2998 12.31 40.1298C12.99 40.9598 13.79 41.6498 14.67 42.2398C16.24 43.2898 18.05 44.0198 19.92 44.2398C20.9 44.3598 21.78 44.3998 22.74 44.4198C24.52 44.4698 26.3 44.3998 28.08 44.3898C29.95 44.3898 31.82 44.2898 33.69 44.2898C34.45 44.2898 35.24 44.2998 35.97 44.0998C36.32 43.9998 36.66 43.8498 36.98 43.6498C37.4 43.3798 37.75 43.0298 38.02 42.6198C38 42.6298 37.99 42.6398 37.98 42.6498L37.97 42.6598Z" fill="#C43151"></path><path d="M15.65 2.21989L15.59 2.50989C15.61 2.38989 15.64 2.26989 15.66 2.13989C15.66 2.16989 15.65 2.18989 15.64 2.20989L15.65 2.21989Z" fill="#C43151"></path><path d="M36.9 4.75H22.52L17.55 30.33C17.51 31.84 17.76 33.54 18.72 34.69C19.46 35.58 20.62 36.06 21.91 36.31L35.88 36.35C37.08 36.35 38.2 36.9 38.9 37.81C39.62 38.76 39.78 40.01 39.31 41.11C39.04 41.73 38.58 42.26 38.02 42.63C37.75 43.04 37.39 43.4 36.98 43.66C36.67 43.86 36.33 44.01 35.97 44.11C35.23 44.32 34.45 44.3 33.69 44.3C31.82 44.3 29.95 44.4 28.08 44.4C26.3 44.4 24.52 44.47 22.74 44.43C21.78 44.4 20.91 44.36 19.92 44.25C18.05 44.03 16.25 43.3 14.67 42.25C13.78 41.66 12.99 40.96 12.31 40.14C11.62 39.31 11.11 38.42 10.71 37.51C10.62 37.32 10.54 37.12 10.47 36.93C10.05 35.83 9.78 34.67 9.65 33.49C9.53 32.43 9.48 31.33 9.62 30.28C9.64 30.14 9.66 29.99 9.68 29.85C9.72 29.57 9.76 29.29 9.8 29.01C9.91 28.29 10.03 27.57 10.14 26.85L15.12 4.79C15.12 4.79 15.59 2.6 16.13 0C14.8 4.61 9.67 4.86 9.67 4.86H9.72C4.24 5.54 0 10.19 0 15.85V35.68C0 45.11 7.64 52.75 17.07 52.75H36.9C43.03 52.75 48 47.78 48 41.65V15.85C48 9.72 43.03 4.75 36.9 4.75Z" fill="#F04463"></path><path d="M34.83 16.8701H25.91C24.7557 16.8701 23.82 17.8058 23.82 18.9601V18.9701C23.82 20.1244 24.7557 21.0601 25.91 21.0601H34.83C35.9843 21.0601 36.92 20.1244 36.92 18.9701V18.9601C36.92 17.8058 35.9843 16.8701 34.83 16.8701Z" fill="#C43151"></path><path d="M34.83 24.03H25.91C24.7557 24.03 23.82 24.9658 23.82 26.12V26.13C23.82 27.2843 24.7557 28.22 25.91 28.22H34.83C35.9843 28.22 36.92 27.2843 36.92 26.13V26.12C36.92 24.9658 35.9843 24.03 34.83 24.03Z" fill="#C43151"></path><path d="M35.01 16.3301H26.09C24.9357 16.3301 24 17.2658 24 18.4201V18.4301C24 19.5844 24.9357 20.5201 26.09 20.5201H35.01C36.1643 20.5201 37.1 19.5844 37.1 18.4301V18.4201C37.1 17.2658 36.1643 16.3301 35.01 16.3301Z" fill="white"></path><path d="M35.01 23.49H26.09C24.9357 23.49 24 24.4257 24 25.58V25.59C24 26.7443 24.9357 27.68 26.09 27.68H35.01C36.1643 27.68 37.1 26.7443 37.1 25.59V25.58C37.1 24.4257 36.1643 23.49 35.01 23.49Z" fill="white"></path></g><defs><clipPath id="clip0_1_79"><rect width="118.79" height="52.75" fill="white"></rect></clipPath></defs></svg>